<svg width="30" height="30" viewBox="0 0 30 30" fill="none" xmlns="http://www.w3.org/2000/svg">
<path opacity="0.4" d="M22.5 23.5749H21.55C20.55 23.5749 19.6 23.9624 18.9 24.6624L16.7625 26.7749C15.7875 27.7374 14.2 27.7374 13.225 26.7749L11.0875 24.6624C10.3875 23.9624 9.425 23.5749 8.4375 23.5749H7.5C5.425 23.5749 3.75 21.9125 3.75 19.8625V6.22491C3.75 4.17491 5.425 2.51245 7.5 2.51245H22.5C24.575 2.51245 26.25 4.17491 26.25 6.22491V19.8625C26.25 21.9 24.575 23.5749 22.5 23.5749Z" fill="#1675FF"/>
<path d="M12.975 18.1376H9.62499C9.07499 18.1376 8.56249 17.875 8.23749 17.425C7.92499 17 7.84999 16.4751 7.99999 15.9751C8.43749 14.6376 9.51249 13.9125 10.4625 13.2625C11.4625 12.5875 12.025 12.1626 12.025 11.4376C12.025 10.7876 11.5 10.2626 10.85 10.2626C10.2 10.2626 9.675 10.7876 9.675 11.4376C9.675 11.9501 9.25 12.3751 8.7375 12.3751C8.225 12.3751 7.8 11.9501 7.8 11.4376C7.8 9.76258 9.16249 8.38757 10.85 8.38757C12.5375 8.38757 13.9 9.75008 13.9 11.4376C13.9 13.2001 12.575 14.1 11.5125 14.825C10.85 15.275 10.225 15.7001 9.91249 16.2626H12.9625C13.475 16.2626 13.9 16.6876 13.9 17.2001C13.9 17.7126 13.4875 18.1376 12.975 18.1376Z" fill="#1675FF"/>
<path d="M20.05 18.1376C19.5375 18.1376 19.1125 17.7126 19.1125 17.2001V16.3376H16.6625C16.6625 16.3376 16.6625 16.3376 16.65 16.3376C16.0375 16.3376 15.475 16.0126 15.1625 15.4876C14.85 14.9501 14.85 14.2876 15.1625 13.7626C16.0125 12.3001 17 10.6375 17.9 9.18751C18.3 8.55001 19.0625 8.26257 19.775 8.46257C20.4875 8.67507 20.9875 9.32504 20.975 10.075V14.4751H21.25C21.7625 14.4751 22.1875 14.9001 22.1875 15.4126C22.1875 15.9251 21.7625 16.3501 21.25 16.3501H20.9875V17.2126C20.9875 17.7251 20.575 18.1376 20.05 18.1376ZM19.1125 10.8001C18.375 12.0001 17.6125 13.2876 16.925 14.4626H19.1125V10.8001Z" fill="#1675FF"/>
</svg>
