<svg width="30" height="30" viewBox="0 0 30 30" fill="none" xmlns="http://www.w3.org/2000/svg">
<path opacity="0.4" d="M15 21.25V24.225C15 26.5625 14.0625 27.5 11.7125 27.5H5.775C3.4375 27.5 2.5 26.5625 2.5 24.225V18.2875C2.5 15.9375 3.4375 15 5.775 15H8.75V17.9625C8.75 20.3125 9.6875 21.25 12.025 21.25H15Z" fill="#1675FF"/>
<path opacity="0.6" d="M21.25 15V17.9625C21.25 20.3125 20.3125 21.25 17.9625 21.25H12.025C9.6875 21.25 8.75 20.3125 8.75 17.9625V12.025C8.75 9.6875 9.6875 8.75 12.025 8.75H15V11.7125C15 14.0625 15.9375 15 18.275 15H21.25Z" fill="#1675FF"/>
<path d="M27.5 5.775V11.7125C27.5 14.0625 26.5625 15 24.2125 15H18.275C15.9375 15 15 14.0625 15 11.7125V5.775C15 3.4375 15.9375 2.5 18.275 2.5H24.2125C26.5625 2.5 27.5 3.4375 27.5 5.775Z" fill="#1675FF"/>
</svg>
