<svg width="30" height="30" viewBox="0 0 30 30" fill="none" xmlns="http://www.w3.org/2000/svg">
<path d="M23.4375 10V12.625C22.8875 12.55 22.2625 12.5125 21.5625 12.5V10C21.5625 6.0625 20.45 3.4375 15 3.4375C9.55 3.4375 8.4375 6.0625 8.4375 10V12.5C7.7375 12.5125 7.1125 12.55 6.5625 12.625V10C6.5625 6.375 7.4375 1.5625 15 1.5625C22.5625 1.5625 23.4375 6.375 23.4375 10Z" fill="#1675FF"/>
<path opacity="0.4" d="M27.5 18.75V21.25C27.5 26.25 26.25 27.5 21.25 27.5H8.75C3.75 27.5 2.5 26.25 2.5 21.25V18.75C2.5 14.575 3.375 13.0125 6.5625 12.625C7.1125 12.55 7.7375 12.5125 8.4375 12.5H21.5625C22.2625 12.5125 22.8875 12.55 23.4375 12.625C26.625 13.0125 27.5 14.575 27.5 18.75Z" fill="#1675FF"/>
<path d="M10 21.25C9.8375 21.25 9.67499 21.2125 9.52499 21.15C9.36249 21.0875 9.23751 21 9.11251 20.8875C8.88751 20.65 8.75 20.325 8.75 20C8.75 19.8375 8.78748 19.6749 8.84998 19.5249C8.91248 19.3749 9.00001 19.2374 9.11251 19.1124C9.23751 18.9999 9.36249 18.9125 9.52499 18.85C9.98749 18.65 10.5375 18.7624 10.8875 19.1124C11 19.2374 11.0875 19.3749 11.15 19.5249C11.2125 19.6749 11.25 19.8375 11.25 20C11.25 20.325 11.1125 20.65 10.8875 20.8875C10.65 21.1125 10.325 21.25 10 21.25Z" fill="#1675FF"/>
<path d="M15 21.25C14.6625 21.25 14.35 21.1125 14.1125 20.8875C14 20.7625 13.9125 20.625 13.85 20.475C13.7875 20.325 13.75 20.1625 13.75 20C13.75 19.6625 13.8875 19.35 14.1125 19.1125C14.575 18.65 15.4125 18.65 15.8875 19.1125C16.1125 19.35 16.25 19.6625 16.25 20C16.25 20.1625 16.2125 20.325 16.15 20.475C16.0875 20.625 16 20.7625 15.8875 20.8875C15.65 21.1125 15.325 21.25 15 21.25Z" fill="#1675FF"/>
<path d="M20 21.25C19.675 21.25 19.35 21.1125 19.1125 20.8875C18.8875 20.65 18.75 20.3375 18.75 20C18.75 19.6625 18.8875 19.35 19.1125 19.1125C19.5875 18.65 20.425 18.65 20.8875 19.1125C20.9375 19.175 20.9875 19.2375 21.0375 19.3125C21.0875 19.375 21.125 19.45 21.15 19.525C21.1875 19.6 21.2125 19.675 21.225 19.75C21.2375 19.8375 21.25 19.925 21.25 20C21.25 20.325 21.1125 20.65 20.8875 20.8875C20.65 21.1125 20.325 21.25 20 21.25Z" fill="#1675FF"/>
</svg>
